<?xml version="1.0" encoding="iso-8859-1"?>
<!-- Generator: Adobe Illustrator 18.0.0, SVG Export Plug-In . SVG Version: 6.00 Build 0)  -->
<!DOCTYPE svg PUBLIC "-//W3C//DTD SVG 1.1//EN" "http://www.w3.org/Graphics/SVG/1.1/DTD/svg11.dtd">
<svg version="1.1" id="Capa_1" xmlns="http://www.w3.org/2000/svg" xmlns:xlink="http://www.w3.org/1999/xlink" x="0px" y="0px"
	 viewBox="0 0 493.674 493.674" style="enable-background:new 0 0 493.674 493.674;" xml:space="preserve">
<g>
	<path d="M208.944,215.432h28.636c4.548,0,8.228-3.68,8.228-8.228c0-4.548-3.68-8.228-8.228-8.228h-28.636
		c-4.548,0-8.228,3.68-8.228,8.228C200.716,211.752,204.396,215.432,208.944,215.432z"/>
	<path d="M477.572,268.005v-30.01c0-26.588-19.847-49.479-46.17-53.248l-74.549-10.694l-74.677-87.133
		c-5.273-6.13-12.921-9.642-21.004-9.642H129.01c-10.428,0-19.862,5.761-24.603,15.018l-43.018,83.637l-9.981,4.13
		c-20.183,8.356-33.232,27.873-33.232,49.713v37.106C7.473,271.951,0,282.774,0,295.381v21.116c0,17.429,14.173,31.61,31.61,31.61
		h13.049c-0.016,0.836-0.242,1.607-0.242,2.45c0,36.303,29.522,65.839,65.823,65.839c36.303,0,65.839-29.536,65.839-65.839
		c0-0.843-0.208-1.614-0.242-2.45h141.981c-0.017,0.836-0.242,1.607-0.242,2.45c0,36.303,29.522,65.839,65.823,65.839
		c36.319,0,65.856-29.536,65.856-65.839c0-0.843-0.226-1.614-0.242-2.45h13.049c17.436,0,31.61-14.182,31.61-31.61v-21.116
		C493.674,283.618,487.133,273.445,477.572,268.005z M335.03,186.514v77.257H186.848V185.38h147.202L335.03,186.514z
		 M427.898,209.18c14.254,2.034,24.99,14.424,24.99,28.814v25.776H351.486v-65.559L427.898,209.18z M263.454,103.006l56.502,65.919
		H186.848v-66.963h74.324C262.055,101.961,262.891,102.346,263.454,103.006z M126.359,103.575c0.515-0.979,1.544-1.614,2.651-1.614
		h33.153v66.963H92.756L126.359,103.575z M60.857,202.865l14.159-5.857c2.7-1.117,4.917-3.158,6.252-5.753l3.021-5.874h77.875
		v78.391H42.859v-33.996C42.859,217.955,49.93,207.388,60.857,202.865z M32.912,315.195v-18.513h39.709
		c-7.071,4.95-13.066,11.241-17.726,18.513H32.912z M110.241,383.485c-18.143,0-32.912-14.769-32.912-32.928
		c0-18.151,14.769-32.92,32.912-32.92c18.159,0,32.928,14.769,32.928,32.92C143.169,368.716,128.399,383.485,110.241,383.485z
		 M165.586,315.195c-4.66-7.272-10.655-13.563-17.71-18.513h197.904c-7.071,4.95-13.064,11.241-17.726,18.513H165.586z
		 M383.4,383.485c-18.143,0-32.912-14.769-32.912-32.928c0-18.151,14.769-32.92,32.912-32.92c18.159,0,32.944,14.769,32.944,32.92
		C416.345,368.716,401.559,383.485,383.4,383.485z M460.762,315.195h-22c-4.661-7.272-10.655-13.563-17.727-18.513h39.726V315.195z"
		/>
</g>
<g>
</g>
<g>
</g>
<g>
</g>
<g>
</g>
<g>
</g>
<g>
</g>
<g>
</g>
<g>
</g>
<g>
</g>
<g>
</g>
<g>
</g>
<g>
</g>
<g>
</g>
<g>
</g>
<g>
</g>
</svg>
